<?xml version="1.0" standalone="no"?><!DOCTYPE svg PUBLIC "-//W3C//DTD SVG 1.1//EN" "http://www.w3.org/Graphics/SVG/1.1/DTD/svg11.dtd">
<svg t="1649435956295" class="icon" viewBox="0 0 1024 1024" version="1.1"
    xmlns="http://www.w3.org/2000/svg" p-id="2218" data-darkreader-inline-fill=""
    xmlns:xlink="http://www.w3.org/1999/xlink" width="200" height="200">
    <defs>
        <style type="text/css"></style>
    </defs>
    <path d="M904 332.576q0 57.728-40.864 98.56t-98.56 40.864-98.56-40.864-40.864-98.56 40.864-98.56 98.56-40.864 98.56 40.864 40.864 98.56zM464 756.576q0-59.424-41.728-101.152t-101.152-41.728q-15.424 0-30.848 3.424l59.424 24q44 17.728 62.56 60.864t0.864 86.56q-17.728 44-61.152 62.272t-86.848 0.576q-12-4.576-35.424-14.016t-34.848-14.016q18.272 34.272 52 55.136t74.272 20.864q59.424 0 101.152-41.728t41.728-101.152zM938.272 333.152q0-72-51.136-123.136t-123.136-51.136q-72.576 0-123.712 51.136t-51.136 123.136q0 72.576 51.136 123.424t123.712 50.848q72 0 123.136-50.848t51.136-123.424zM1024 333.152q0 108-76.288 184t-183.712 76l-249.728 182.272q-6.848 73.728-62.272 124.576t-130.848 50.848q-69.152 0-122.272-43.424t-67.424-109.728l-131.424-52.576 0-245.152 222.272 89.728q45.152-27.424 98.848-27.424 7.424 0 20 1.152l162.272-232.576q1.152-106.848 77.44-182.272t183.136-75.424q107.424 0 183.712 76.288t76.288 183.712z" p-id="2219"></path>
</svg>