<?xml version="1.0" standalone="no"?><!DOCTYPE svg PUBLIC "-//W3C//DTD SVG 1.1//EN" "http://www.w3.org/Graphics/SVG/1.1/DTD/svg11.dtd">
<svg t="1649436033265" class="icon" viewBox="0 0 1024 1024" version="1.1"
    xmlns="http://www.w3.org/2000/svg" p-id="3664" data-darkreader-inline-fill=""
    xmlns:xlink="http://www.w3.org/1999/xlink" width="200" height="200">
    <defs>
        <style type="text/css"></style>
    </defs>
    <path d="M510.4 0C243.2 0 20.8 208 1.6 470.4l273.6 113.6c24-16 51.2-24 81.6-24h8l121.6-177.6v-1.6c0-105.6 86.4-193.6 193.6-193.6s193.6 86.4 193.6 193.6-86.4 193.6-193.6 193.6h-4.8l-174.4 124.8v6.4c0 80-65.6 145.6-145.6 145.6-70.4 0-129.6-51.2-142.4-116.8L17.6 651.2C78.4 865.6 276.8 1024 510.4 1024c283.2 0 512-228.8 512-512S793.6 0 510.4 0z" p-id="3665"></path>
    <path d="M321.6 777.6L259.2 752c11.2 24 30.4 43.2 56 52.8 54.4 24 118.4-3.2 142.4-57.6 11.2-27.2 11.2-56 0-83.2-11.2-27.2-32-48-57.6-59.2s-54.4-9.6-80-1.6l65.6 27.2c40 17.6 60.8 64 43.2 104-19.2 40-65.6 59.2-107.2 43.2zM808 379.2c0-70.4-57.6-129.6-129.6-129.6-70.4 0-129.6 57.6-129.6 129.6s59.2 129.6 129.6 129.6 129.6-57.6 129.6-129.6z m-224 0c0-54.4 43.2-96 96-96 54.4 0 96 43.2 96 96 0 54.4-43.2 96-96 96-52.8 1.6-96-41.6-96-96z" p-id="3666"></path>
</svg>